<?xml version="1.0" encoding="UTF-8"?>
<svg version="1.1" xmlns="http://www.w3.org/2000/svg" width="32" height="32">
<path d="M0 0 C10.56 0 21.12 0 32 0 C32 10.56 32 21.12 32 32 C21.44 32 10.88 32 0 32 C0 21.44 0 10.88 0 0 Z " fill="#EFF5F3" transform="translate(0,0)"/>
<path d="M0 0 C10.56 0 21.12 0 32 0 C32 10.56 32 21.12 32 32 C21.44 32 10.88 32 0 32 C0 21.44 0 10.88 0 0 Z M4 7 C3.55802781 8.97202001 3.55802781 8.97202001 3.63671875 11.125 C3.63736328 11.91390625 3.63800781 12.7028125 3.63867188 13.515625 C3.65478516 14.33546875 3.67089844 15.1553125 3.6875 16 C3.68427734 16.81984375 3.68105469 17.6396875 3.67773438 18.484375 C3.66936158 23.53084195 3.66936158 23.53084195 6 28 C8.09073276 28.46398705 8.09073276 28.46398705 10.5 28.3984375 C11.386875 28.40230469 12.27375 28.40617187 13.1875 28.41015625 C14.115625 28.39855469 15.04375 28.38695313 16 28.375 C16.928125 28.38660156 17.85625 28.39820312 18.8125 28.41015625 C20.1428125 28.40435547 20.1428125 28.40435547 21.5 28.3984375 C22.3146875 28.39505371 23.129375 28.39166992 23.96875 28.38818359 C24.6390625 28.26008301 25.309375 28.13198242 26 28 C28.71382083 23.92926875 28.33127641 20.77671888 28.3125 16 C28.32861328 15.18015625 28.34472656 14.3603125 28.36132812 13.515625 C28.36197266 12.72671875 28.36261719 11.9378125 28.36328125 11.125 C28.36626221 10.40570312 28.36924316 9.68640625 28.37231445 8.9453125 C27.88336827 6.39060874 27.08784905 5.52468504 25 4 C23.02903326 3.54228036 23.02903326 3.54228036 20.875 3.6015625 C19.69164062 3.59576172 19.69164062 3.59576172 18.484375 3.58984375 C17.25460938 3.60724609 17.25460938 3.60724609 16 3.625 C15.18015625 3.61339844 14.3603125 3.60179687 13.515625 3.58984375 C12.72671875 3.59371094 11.9378125 3.59757813 11.125 3.6015625 C10.40570312 3.60494629 9.68640625 3.60833008 8.9453125 3.61181641 C6.39907739 4.11991302 5.52213851 4.91466143 4 7 Z " fill="#030303" transform="translate(0,0)"/>
<path d="M0 0 C0 0.66 0 1.32 0 2 C-0.66 2.66 -1.32 3.32 -2 4 C-1.01 3.34 -0.02 2.68 1 2 C3.6875 1.875 3.6875 1.875 6 2 C6.33 3.32 6.66 4.64 7 6 C6.29875 5.79375 5.5975 5.5875 4.875 5.375 C1.39813928 4.92149643 -0.77398123 5.72459723 -4 7 C-2.35 7.33 -0.7 7.66 1 8 C1 7.34 1 6.68 1 6 C4.35595828 6.59927826 6.37801226 7.84622436 9 10 C8.6984013 13.51865145 7.99394038 15.00757452 5.75 17.8125 C3 20 3 20 0.1875 20.3125 C-0.534375 20.209375 -1.25625 20.10625 -2 20 C-1.34 19.01 -0.68 18.02 0 17 C-0.66 17.33 -1.32 17.66 -2 18 C-3.99960012 18.039992 -6.00047242 18.04346799 -8 18 C-8.66 16.68 -9.32 15.36 -10 14 C-9.01 14 -8.02 14 -7 14 C-7.680625 13.443125 -8.36125 12.88625 -9.0625 12.3125 C-9.701875 11.549375 -10.34125 10.78625 -11 10 C-10.75 7.25 -10.75 7.25 -10 5 C-9.34 5 -8.68 5 -8 5 C-8 6.98 -8 8.96 -8 11 C-7.67 10.67 -7.34 10.34 -7 10 C-7.04125 8.88625 -7.0825 7.7725 -7.125 6.625 C-7 3 -7 3 -5.75 1.0625 C-4 0 -4 0 0 0 Z " fill="#92D2C2" transform="translate(17,6)"/>
<path d="M0 0 C2.93804996 -0.08086376 5.87388075 -0.1404283 8.8125 -0.1875 C9.64587891 -0.21263672 10.47925781 -0.23777344 11.33789062 -0.26367188 C12.54155273 -0.27817383 12.54155273 -0.27817383 13.76953125 -0.29296875 C14.87711792 -0.31653442 14.87711792 -0.31653442 16.00708008 -0.34057617 C18.61526318 0.1051442 19.46596904 0.86382604 21 3 C21.34057617 4.99291992 21.34057617 4.99291992 21.29296875 7.23046875 C21.28330078 8.03291016 21.27363281 8.83535156 21.26367188 9.66210938 C21.23853516 10.49548828 21.21339844 11.32886719 21.1875 12.1875 C21.16719727 13.4549707 21.16719727 13.4549707 21.14648438 14.74804688 C21.11115799 16.83230384 21.05735139 18.91623277 21 21 C20.67 21 20.34 21 20 21 C19.93683594 20.39671875 19.87367187 19.7934375 19.80859375 19.171875 C19.15707247 14.30280837 19.15707247 14.30280837 16.30859375 10.51171875 C14.17971755 9.28504265 14.17971755 9.28504265 11 8 C11 8.66 11 9.32 11 10 C9.35 10.33 7.7 10.66 6 11 C6 10.34 6 9.68 6 9 C9.25 7.375 9.25 7.375 13 6 C15.4375 6.8125 15.4375 6.8125 17 8 C16.67 7.01 16.34 6.02 16 5 C12.14354879 4.77963136 9.50776784 5.39644899 6 7 C6.66 6.01 7.32 5.02 8 4 C8.66 4 9.32 4 10 4 C10 3.34 10 2.68 10 2 C6.7 1.67 3.4 1.34 0 1 C0 0.67 0 0.34 0 0 Z " fill="#DEE8E6" transform="translate(7,4)"/>
<path d="M0 0 C1.4540625 0.0309375 1.4540625 0.0309375 2.9375 0.0625 C2.9375 1.0525 2.9375 2.0425 2.9375 3.0625 C2.6075 3.3925 2.2775 3.7225 1.9375 4.0625 C1.86601801 5.41493917 1.85350546 6.77084367 1.875 8.125 C1.895625 9.424375 1.91625 10.72375 1.9375 12.0625 C1.2775 12.0625 0.6175 12.0625 -0.0625 12.0625 C-0.0625 10.0825 -0.0625 8.1025 -0.0625 6.0625 C-0.7225 6.0625 -1.3825 6.0625 -2.0625 6.0625 C-2.3925 8.0425 -2.7225 10.0225 -3.0625 12.0625 C-3.3925 12.0625 -3.7225 12.0625 -4.0625 12.0625 C-4.08937279 10.25007948 -4.10883715 8.43754767 -4.125 6.625 C-4.13660156 5.61566406 -4.14820313 4.60632813 -4.16015625 3.56640625 C-4.01596662 -0.13061575 -3.76355726 0.07680729 0 0 Z " fill="#F6FBFA" transform="translate(9.0625,4.9375)"/>
<path d="M0 0 C0.66 0 1.32 0 2 0 C2 1.98 2 3.96 2 6 C4.475 6.99 4.475 6.99 7 8 C7 8.66 7 9.32 7 10 C1.25 8.375 1.25 8.375 -1 5 C-0.625 2.3125 -0.625 2.3125 0 0 Z " fill="#2AA889" transform="translate(7,11)"/>
<path d="M0 0 C3.35595828 0.59927826 5.37801226 1.84622436 8 4 C7.625 6.4375 7.625 6.4375 7 9 C6.01 9.495 6.01 9.495 5 10 C4.9175 9.05125 4.835 8.1025 4.75 7.125 C4.34925077 3.89538209 4.34925077 3.89538209 1.9375 2.625 C1.298125 2.41875 0.65875 2.2125 0 2 C0 1.34 0 0.68 0 0 Z " fill="#25A687" transform="translate(18,12)"/>
<path d="M0 0 C0 0.66 0 1.32 0 2 C-1.65 2.66 -3.3 3.32 -5 4 C-5 5.98 -5 7.96 -5 10 C-5.66 10 -6.32 10 -7 10 C-7.36426713 3.56461405 -7.36426713 3.56461405 -5.75 1.0625 C-4 0 -4 0 0 0 Z " fill="#3AAF92" transform="translate(17,6)"/>
<path d="M0 0 C1.60875 0.2784375 1.60875 0.2784375 3.25 0.5625 C6.40391546 0.9304568 8.09818492 1.04465343 11 0 C10 3 10 3 8 4 C6.00039988 4.039992 3.99952758 4.04346799 2 4 C1.34 2.68 0.68 1.36 0 0 Z " fill="#29A889" transform="translate(7,20)"/>
<path d="M0 0 C0.33 1.32 0.66 2.64 1 4 C0.278125 3.79375 -0.44375 3.5875 -1.1875 3.375 C-4.44641585 2.94047789 -6.08304504 3.58319331 -9 5 C-7.35234966 0.05704899 -4.76872479 -0.25776891 0 0 Z " fill="#26A788" transform="translate(23,8)"/>
<path d="M0 0 C0.33 0 0.66 0 1 0 C1.02689216 1.47906892 1.04634621 2.95827483 1.0625 4.4375 C1.07410156 5.26121094 1.08570313 6.08492187 1.09765625 6.93359375 C1 9 1 9 0 10 C-1.66617115 10.04063832 -3.33388095 10.042721 -5 10 C-4.360625 9.46375 -3.72125 8.9275 -3.0625 8.375 C-0.61470596 5.55632807 -0.33285388 3.66139268 0 0 Z " fill="#1DA382" transform="translate(20,16)"/>
<path d="M0 0 C1.32 0 2.64 0 4 0 C3.67 1.65 3.34 3.3 3 5 C2.01 4.67 1.02 4.34 0 4 C0 2.68 0 1.36 0 0 Z " fill="#16A17F" transform="translate(14,14)"/>
</svg>
